<svg fill="none" height="24" viewBox="0 0 24 24" width="24" xmlns="http://www.w3.org/2000/svg"><g fill="#000"><path d="m4.03998 14.94c-.33 0-.62997-.22-.71997-.55-.21-.78-.32001-1.58-.32001-2.39 0-4.96 4.04-9 9-9 1.69 0 3.33.47 4.75 1.36.35.22.46.68.24 1.03s-.68.46-1.03.24c-1.19-.74-2.56-1.13-3.96-1.13-4.14 0-7.5 3.36-7.5 7.5 0 .68.09002 1.35.27002 1.99.11.4-.13003.81-.53003.92-.06.02-.13001.03-.20001.03z"/><path d="m11.9998 21.0001c-1.7 0-3.35001-.48-4.78001-1.37-.35-.22-.45999-.68-.23999-1.03s.68003-.46 1.03003-.24c1.19.75 2.56997 1.14 3.97997 1.14 4.14 0 7.5-3.36 7.5-7.5 0-.73-.11-1.46-.31-2.15003-.12-.4.11-.81.5-.93.4-.12.81.11.93.5.25.83003.38 1.70003.38 2.58003.01 4.96-4.03 9-8.99 9z"/><path d="m1.99965 16.7502c-.26 0-.51997-.14-.65997-.39-.2-.36-.07001-.82.29999-1.02l20.00003-11.00004c.36-.2.8199-.06999 1.0199.30001.2.36.07.82-.3 1.02l-19.99996 11.00003c-.11.06-.23999.09-.35999.09z"/><path d="m1.99965 20.2502c-.26 0-.51997-.14-.65997-.39-.2-.36-.07001-.82.29999-1.02l20.00003-11.00004c.36-.2.8199-.06999 1.0199.30001.2.36.07.82-.3 1.02l-19.99996 11.00003c-.11.06-.23999.09-.35999.09z"/></g></svg>